<svg width="88" height="44" viewBox="0 0 88 44" fill="none" xmlns="http://www.w3.org/2000/svg">
<path d="M4.98438 2.77148H0.853516V0.486328H30.4727V2.77148H25.1992L33.3145 26.7949L37.709 12.0293L34.3398 2.77148H32.4062V0.486328H59.8281V2.77148H54.5547L62.6113 26.6484L69.0273 4.58789C69.0859 4.41211 69.1152 4.25586 69.1152 4.11914C69.1152 3.86523 68.9785 3.66016 68.7051 3.50391C68.4512 3.32812 68.0801 3.19141 67.5918 3.09375C67.123 2.97656 66.5566 2.89844 65.8926 2.85938C65.248 2.80078 64.5352 2.77148 63.7539 2.77148V0.486328H77.6992V2.77148C75.9609 2.77148 74.6719 2.9082 73.832 3.18164C73.0117 3.43555 72.4941 3.9043 72.2793 4.58789L61.2051 42H48.6074L39.3789 16.5703L31.8496 42H19.2812L4.98438 2.77148ZM71.3027 35.2324C71.3027 34.1387 71.5078 33.1133 71.918 32.1562C72.3281 31.1797 72.8945 30.3398 73.6172 29.6367C74.3398 28.9141 75.1797 28.3477 76.1367 27.9375C77.0938 27.5273 78.1191 27.3223 79.2129 27.3223C80.2871 27.3223 81.3027 27.5273 82.2598 27.9375C83.2168 28.3477 84.0566 28.9141 84.7793 29.6367C85.502 30.3398 86.0684 31.1797 86.4785 32.1562C86.8887 33.1133 87.0938 34.1387 87.0938 35.2324C87.0938 36.3262 86.8887 37.3516 86.4785 38.3086C86.0684 39.2461 85.502 40.0762 84.7793 40.7988C84.0566 41.5215 83.2168 42.0879 82.2598 42.498C81.3027 42.9082 80.2871 43.1133 79.2129 43.1133C78.1191 43.1133 77.0938 42.9082 76.1367 42.498C75.1797 42.0879 74.3398 41.5215 73.6172 40.7988C72.8945 40.0762 72.3281 39.2461 71.918 38.3086C71.5078 37.3516 71.3027 36.3262 71.3027 35.2324Z" fill="#333333"/>
</svg>
