<svg width="99" height="60" viewBox="0 0 99 60" fill="none" xmlns="http://www.w3.org/2000/svg">
<path d="M4.98438 17.7715H0.853516V15.4863H30.4727V17.7715H25.1992L33.3145 41.7949L37.709 27.0293L34.3398 17.7715H32.4062V15.4863H59.8281V17.7715H54.5547L62.6113 41.6484L69.0273 19.5879C69.0859 19.4121 69.1152 19.2559 69.1152 19.1191C69.1152 18.8652 68.9785 18.6602 68.7051 18.5039C68.4512 18.3281 68.0801 18.1914 67.5918 18.0938C67.123 17.9766 66.5566 17.8984 65.8926 17.8594C65.248 17.8008 64.5352 17.7715 63.7539 17.7715V15.4863H77.6992V17.7715C75.9609 17.7715 74.6719 17.9082 73.832 18.1816C73.0117 18.4355 72.4941 18.9043 72.2793 19.5879L61.2051 57H48.6074L39.3789 31.5703L31.8496 57H19.2812L4.98438 17.7715ZM71.3027 50.2324C71.3027 49.1387 71.5078 48.1133 71.918 47.1562C72.3281 46.1797 72.8945 45.3398 73.6172 44.6367C74.3398 43.9141 75.1797 43.3477 76.1367 42.9375C77.0938 42.5273 78.1191 42.3223 79.2129 42.3223C80.2871 42.3223 81.3027 42.5273 82.2598 42.9375C83.2168 43.3477 84.0566 43.9141 84.7793 44.6367C85.502 45.3398 86.0684 46.1797 86.4785 47.1562C86.8887 48.1133 87.0938 49.1387 87.0938 50.2324C87.0938 51.3262 86.8887 52.3516 86.4785 53.3086C86.0684 54.2461 85.502 55.0762 84.7793 55.7988C84.0566 56.5215 83.2168 57.0879 82.2598 57.498C81.3027 57.9082 80.2871 58.1133 79.2129 58.1133C78.1191 58.1133 77.0938 57.9082 76.1367 57.498C75.1797 57.0879 74.3398 56.5215 73.6172 55.7988C72.8945 55.0762 72.3281 54.2461 71.918 53.3086C71.5078 52.3516 71.3027 51.3262 71.3027 50.2324Z" fill="#333333"/>
</svg>
